PathFileType	4	(X/Y/Z)	54_1_12_p1_0-326.trc
DataRate	CameraRate	NumFrames	NumMarkers	Units	OrigDataRate	OrigDataStartFrame	OrigNumFrames
59.0	59.0	5	27	m	59.0	122	327
Frame#	Time	RHip			RKnee			RAnkle			RBigToe			RSmallToe			RHeel			LHip			LKnee			LAnkle			LBigToe			LSmallToe			LHeel			Neck			Head			Nose			RShoulder			RElbow			RWrist			RThumb			RIndex			RPinky			LShoulder			LElbow			LWrist			LThumb			LIndex			LPinky			
		X1	Y1	Z1	X2	Y2	Z2	X3	Y3	Z3	X4	Y4	Z4	X5	Y5	Z5	X6	Y6	Z6	X7	Y7	Z7	X8	Y8	Z8	X9	Y9	Z9	X10	Y10	Z10	X11	Y11	Z11	X12	Y12	Z12	X13	Y13	Z13	X14	Y14	Z14	X15	Y15	Z15	X16	Y16	Z16	X17	Y17	Z17	X18	Y18	Z18	X19	Y19	Z19	X20	Y20	Z20	X21	Y21	Z21	X22	Y22	Z22	X23	Y23	Z23	X24	Y24	Z24	X25	Y25	Z25	X26	Y26	Z26	X27	Y27	Z27	
122	2.0677966101694913	0.28857941511327406	0.5228205754167826	0.9445046293274995	0.2845179419656558	0.5501912732266258	1.4532875783621915	0.26201000096122684	0.5478494627486282	1.9250025419978218	0.22283191153766346	0.3719229711275015	1.9562037408484028	0.28369945380352524	0.38876281328492107	1.9618309417080044	0.23993397136325362	0.6315911239897892	1.9990790906001696	0.06374157521971913	0.5421013616049858	0.9567729506136193	0.06502204282765087	0.5752195662784801	1.4528882336692552	0.05490120318465257	0.547804085292607	1.889936412328482	0.06292903549661841	0.382742706075903	1.9493115600926267	0.010363674705433465	0.4390931528892681	1.9725962839201765	0.05987972917536261	0.5829298179533164	1.9481161213359746	0.19415541346682538	0.5362171628852698	0.40173484556614386	0.20304980959043484	0.47479067105801953	0.15290265649342083	0.20126789498817857	0.41336505206946395	0.26956610157066835	0.3511229502244894	0.5207676787964187	0.4977063963085174	0.39141534071351425	0.5667606694286345	0.8062683259879778	0.33443288486218326	0.4280216320996616	0.9848229396403455	0.25307016188726844	0.3589039093018223	1.071079526305182	0.25963090702346403	0.3532638019676286	1.095855729838975	0.2944267159203827	0.36289140778957274	1.1008917569498313	0.021102813745433897	0.5228975700245664	0.48064672854666546	-0.037170284605501785	0.5663353825646178	0.7603213003092182	-0.009498779205038633	0.44059470445993953	1.0061952723450458	0.0588113589317551	0.3674035557477564	1.1023223534623052	0.034672372991405846	0.37779406900399376	1.1200130311828038	-0.016052123727229514	0.4093632526460975	1.1314180598231693
123	2.0847457627118646	0.28852661140924396	0.5227219088732332	0.9447203196597745	0.2845783788097092	0.5504566173414254	1.4534716014564646	0.26199878875961286	0.5480737128775621	1.9251269069196826	0.2228975326271207	0.37200204689896865	1.9564267798101986	0.2837017308684723	0.3888483790424611	1.9619554025634862	0.2404181953995546	0.6329411389018484	2.0000638389560055	0.06741455914898908	0.5437109296812604	0.9572241676710841	0.06506410679376233	0.575381468383848	1.4530001725694086	0.054932513449914296	0.5479103585730263	1.8899932948679727	0.06294626494360955	0.3829039808775518	1.9494197990549218	0.01033974048507973	0.4391017315181623	1.9725625299043075	0.060124579172273145	0.5837080005645285	1.9483695690491418	0.1941651468579055	0.5362540360870712	0.4017144897721912	0.20639958258433688	0.484552427497494	0.1531531270388942	0.2013475658868908	0.4130443426682096	0.27289734709138014	0.35521773706943094	0.5306800265256694	0.4992260823102906	0.391545070504928	0.5656603255786304	0.8098450364606196	0.3270714854390622	0.4392628843294011	0.9886394431312189	0.24851870749545588	0.3595361781254049	1.0676596584066123	0.2592851202177162	0.3534492461150963	1.095792559522724	0.2936500825858982	0.3632053457656282	1.104379376835574	0.021121557207850774	0.5228524547079886	0.4806160764801899	-0.04013917095522544	0.5546827796517944	0.7535237946757224	-0.005908087124435842	0.45123064691208725	1.0061695714918233	0.05909506771213276	0.36686144771431095	1.1020675532393587	0.038732919686828	0.37918482313269003	1.1205351208779526	-0.01572146829907773	0.4094639246607901	1.131436512923606
124	2.1016949152542375	0.29238534303666036	0.5101603574333299	0.9331375315395224	0.2835097589896413	0.5495815324815269	1.4484293476739167	0.26091199180925145	0.5465251742294986	1.9194664070804377	0.2228549039294849	0.3720925300400082	1.9562541576416643	0.286833160241745	0.3986818480990178	1.9638055048485494	0.23993263251780372	0.6291038172431235	2.0016265717966673	0.06414782189971523	0.5433443994711084	0.9497388045955493	0.06508982017824023	0.5753663475087131	1.4529496563995872	0.05513218744782685	0.546308476907067	1.8933653596666367	0.06295744577920269	0.38300181855265814	1.9496006989386576	0.010306156900205036	0.4392724825039765	1.972809880457986	0.05993991083211662	0.5831710896534462	1.9481945091812944	0.19426903974202525	0.5362677511055094	0.40168123071644984	0.2064226791271261	0.4847656109263336	0.15303431506860904	0.2013342638496933	0.4127014951942312	0.2726263455884881	0.35111803898046146	0.5208472359308859	0.4976619840402535	0.3908133961853153	0.5660045335708636	0.8022242361400691	0.32243745576116106	0.4287171311675833	0.9849909300386913	0.24776371642379566	0.3608860931521459	1.0639097540361753	0.25497806895761366	0.35374145569193893	1.092131246187751	0.29042737664063906	0.37515138732121045	1.1087314274488917	0.021125416509606396	0.5230198131857033	0.48065706009918346	-0.03325236474206035	0.5685330712899686	0.7609046929608974	-0.005925288211918017	0.4504815899290734	1.0015809739250838	0.05835923086984933	0.3656370189929753	1.0980408041124319	0.04352243700697351	0.36680639939287424	1.1191118834401903	-0.012204792788797951	0.4207637161671473	1.135635119997287
125	2.1186440677966103	0.28827356824364225	0.5239333070200942	0.9409811020043297	0.2835526716593011	0.549748273207689	1.448497881605975	0.2610783042426313	0.5470648432278876	1.919572325586638	0.2259013468738833	0.3816164868037212	1.9584030044488976	0.28687737858342327	0.39890292137924466	1.963691111422949	0.2381895835746006	0.6285237147949504	1.9923014274193256	0.06338689350864221	0.5427478339577423	0.9531668743552518	0.06434319688045616	0.5753849815776493	1.4572519487900004	0.05518024074127648	0.5460276576159794	1.893121678547851	0.0629487876794437	0.3830540065740128	1.949640362307779	0.010298046343243843	0.439308858401061	1.9728509851153897	0.06000770927408631	0.5831364986087094	1.948055128802496	0.19421130273403625	0.5362725826665392	0.40166034602082457	0.2063652553116613	0.48504745601207555	0.15297159913750663	0.20128440327750216	0.4137091434765563	0.26932588503995814	0.3552505964261233	0.5308072789900159	0.499209701903586	0.39166158156325603	0.567202926994914	0.8028112864926169	0.32201159465339746	0.4295258348063622	0.981430158183722	0.24357934160547426	0.3744474871086944	1.064664529815978	0.25502048255679405	0.3536076018057167	1.0883974049571792	0.29362632529139965	0.3628910220008652	1.0999344345591209	0.02111168587993641	0.5228742309903704	0.4806003633215371	-0.036246111454582196	0.557481445106868	0.7581773833350192	-0.005788697934620096	0.4523505936608252	1.0023739968702945	0.05920825816494228	0.3658458215482325	1.0944917871874582	0.04739560682327839	0.36768196931028596	1.1193361212850708	-0.003652292086723088	0.4119820961665151	1.132094001992284
126	2.135593220338983	0.28784817476513086	0.49758631865020947	0.9369524326290425	0.28353039863442214	0.5497762088526321	1.4484167019861331	0.261142691999042	0.547283889344901	1.9197802466843297	0.22297941833326218	0.3722272402887752	1.9564435643887828	0.28693296290292936	0.398813361526521	1.9638697459547165	0.23988648923857264	0.6319429477257767	1.999378412814364	0.0634138791793729	0.5420923514115343	0.9569771130836678	0.06455846670895303	0.574059357153443	1.4472328243306254	0.05511789132078526	0.546381949808834	1.893491820459477	0.06303347303734344	0.3828314793595265	1.9494083704451846	0.010339857486051025	0.43911519342434996	1.9726770972833876	0.059761855358758546	0.5831334531297143	1.9484110668520667	0.19419247882875307	0.5363631373481751	0.40158188112039855	0.20637887833834853	0.4851484299092251	0.15298631116749875	0.1980288140970664	0.42554108958136916	0.2701704562535959	0.35523838491739956	0.5309597626243948	0.49915874892753315	0.39183197216418436	0.5674057941381534	0.8028786157378742	0.3180772228554277	0.4273499054486629	0.9807038551767814	0.2395177515296535	0.3875168287884633	1.0692047165612804	0.2550491335103932	0.35469734511732476	1.0885590091323958	0.28998104050848944	0.36093241891035827	1.0953738883013246	0.021005480918778057	0.5224806189526052	0.47731106325247785	-0.03628782839763099	0.5575989306315058	0.7581956770799504	-0.005884668679244482	0.4515082774431503	0.9940591594849872	0.059169922106291684	0.3681181919797451	1.086412747696652	0.05118081910122118	0.3697058993044167	1.1160589977302025	-0.0047543074530133475	0.43459443492443317	1.140773998811756
